<svg width="16" height="18" viewBox="0 0 16 18" fill="none" xmlns="http://www.w3.org/2000/svg">
<g id="Lock">
<path id="Lock_2" d="M7.98694 0.666687C10.5442 0.666687 12.6022 2.67941 12.6022 5.16376V6.4411C14.0373 6.88907 15.0834 8.18823 15.0836 9.73993V13.8542C15.0836 15.7754 13.4906 17.3336 11.527 17.3337H4.47424C2.50971 17.3337 0.916626 15.7754 0.916626 13.8542V9.73993C0.916818 8.18823 1.96375 6.88907 3.39807 6.4411V5.16376C3.40654 2.67951 5.46367 0.666857 7.98694 0.666687ZM7.99573 10.154C7.58938 10.154 7.25958 10.4764 7.2594 10.8737V12.7126C7.25947 13.1183 7.58931 13.4411 7.99573 13.4411C8.41061 13.4411 8.74078 13.1183 8.74084 12.7126V10.8737C8.74066 10.4764 8.41054 10.154 7.99573 10.154ZM8.00452 2.11591C6.28555 2.11591 4.88798 3.47436 4.87952 5.14716V6.26141H11.1207V5.16376C11.1207 3.48279 9.72334 2.11608 8.00452 2.11591Z" fill="#9E9E9E"/>
</g>
</svg>
