<svg width="186" height="180" viewBox="0 0 186 180" fill="none" xmlns="http://www.w3.org/2000/svg">
<circle cx="95.5" cy="90.5" r="70.5" fill="#009476"/>
<circle cx="178.466" cy="27.5" r="7.5" fill="#009476"/>
<circle cx="20.0332" cy="10" r="10" fill="#009476"/>
<circle cx="10.0332" cy="133" r="5" fill="#009476"/>
<circle cx="165.533" cy="160.5" r="2.5" fill="#009476"/>
<path d="M106.169 65.9172C114.502 65.9174 120.083 71.7686 120.083 80.4709V100.558C120.083 109.233 114.502 115.084 106.169 115.084H84.8545C76.521 115.084 70.9161 109.233 70.916 100.558V80.4709C70.916 71.7685 76.5209 65.9174 84.8545 65.9172H106.169ZM105.775 83.1252C104.94 82.2894 103.562 82.2895 102.727 83.1252L92.5742 93.2786L88.2715 88.9768C87.4357 88.141 86.0595 88.141 85.2236 88.9768C84.3879 89.8126 84.3878 91.1643 85.2236 92.0247L91.0742 97.8508C91.4921 98.2687 92.0334 98.4651 92.5742 98.4651C93.1394 98.465 93.6799 98.2686 94.0977 97.8508L105.775 86.1741C106.611 85.3382 106.611 83.9856 105.775 83.1252Z" fill="white"/>
<circle cx="106.533" cy="4.5" r="2.5" fill="#009476"/>
<circle cx="62.5332" cy="176.5" r="3.5" fill="#009476"/>
<circle cx="122.033" cy="171" r="1" fill="#009476"/>
<circle cx="170.533" cy="110.5" r="2.5" fill="#009476"/>
<circle cx="1.0332" cy="75" r="1" fill="#009476"/>
</svg>
