<svg width="24" height="25" viewBox="0 0 24 25" fill="none" xmlns="http://www.w3.org/2000/svg">
<g id="Group">
<path id="Rectangle" d="M0 8.5C0 4.08172 3.58172 0.5 8 0.5H16C20.4183 0.5 24 4.08172 24 8.5V16.5C24 20.9183 20.4183 24.5 16 24.5H8C3.58172 24.5 0 20.9183 0 16.5V8.5Z" fill="#47A1AD"/>
<path id="Vector (Stroke)" fill-rule="evenodd" clip-rule="evenodd" d="M18.0605 8.43934C18.6463 9.02513 18.6463 9.97487 18.0605 10.5607L12.0605 16.5607C11.4747 17.1464 10.5249 17.1464 9.93916 16.5607L6.93916 13.5607C6.35337 12.9749 6.35337 12.0251 6.93916 11.4393C7.52494 10.8536 8.47469 10.8536 9.06048 11.4393L10.9998 13.3787L15.9392 8.43934C16.5249 7.85355 17.4747 7.85355 18.0605 8.43934Z" fill="white"/>
</g>
</svg>
