<svg width="18" height="16" viewBox="0 0 18 16" fill="none" xmlns="http://www.w3.org/2000/svg">
<g id="Hide">
<path id="Hide_2" d="M14.9753 1.09537C15.2192 0.85745 15.6018 0.85745 15.8376 1.09537C16.0811 1.33323 16.0811 1.72666 15.8376 1.96451L14.3571 3.45768C15.5361 4.54058 16.5368 6.00092 17.2849 7.75651C17.3499 7.91232 17.3498 8.09324 17.2849 8.24088C15.5448 12.3266 12.4464 14.7712 8.99875 14.7712H8.99094C7.42162 14.7712 5.9169 14.2547 4.59152 13.3112L3.01437 14.903C2.89248 15.0259 2.73808 15.0836 2.58371 15.0837C2.42922 15.0837 2.2659 15.0261 2.15207 14.903C1.94892 14.6979 1.91722 14.3694 2.0798 14.1315L2.10422 14.0993L14.1296 1.96451C14.1458 1.94814 14.1625 1.93206 14.1706 1.91569C14.1869 1.89929 14.2025 1.88227 14.2107 1.86588L14.9753 1.09537ZM9.0007 1.23795C10.1634 1.23795 11.294 1.51667 12.3347 2.04166L9.61887 4.7819C9.42379 4.7491 9.21202 4.72428 9.0007 4.72428C7.20392 4.72452 5.74875 6.19352 5.74875 8.00651C5.74877 8.21964 5.7729 8.4328 5.80539 8.62955L2.7966 11.6657C1.9835 10.714 1.27658 9.56467 0.715545 8.24381C0.650661 8.09626 0.65063 7.91614 0.715545 7.76041C2.45559 3.67475 5.55346 1.23801 8.99289 1.23795H9.0007ZM10.7956 7.05143C10.9419 7.33024 11.0231 7.65819 11.0232 8.0026C11.0232 9.12658 10.1127 10.0456 8.99875 10.0456C8.65731 10.0455 8.33179 9.96372 8.05539 9.81608L7.16965 10.7106C7.68995 11.0633 8.32403 11.277 8.99875 11.277C10.7876 11.277 12.2429 9.80753 12.2429 8.0026C12.2428 7.32183 12.0319 6.68185 11.6823 6.1569L10.7956 7.05143Z" fill="#9E9E9E"/>
</g>
</svg>
